{
	"asset":{
		"generator":"Khronos glTF Blender I/O v3.6.28",
		"version":"2.0"
	},
	"extensionsUsed":[
		"KHR_materials_specular",
		"KHR_materials_ior"
	],
	"scene":0,
	"scenes":[
		{
			"name":"asteroid_grande",
			"nodes":[
				0
			]
		}
	],
	"nodes":[
		{
			"mesh":0,
			"name":"asterioid_chico"
		}
	],
	"materials":[
		{
			"doubleSided":true,
			"extensions":{
				"KHR_materials_specular":{
					"specularColorFactor":[
						0.6197260576568531,
						0.6197260576568531,
						0.6197260576568531
					]
				},
				"KHR_materials_ior":{
					"ior":1.4500000476837158
				}
			},
			"name":"asteroid_bake.001",
			"pbrMetallicRoughness":{
				"metallicFactor":0.5,
				"roughnessFactor":0.699999988079071
			}
		}
	],
	"meshes":[
		{
			"name":"Cube.025",
			"primitives":[
				{
					"attributes":{
						"POSITION":0,
						"NORMAL":1,
						"TEXCOORD_0":2
					},
					"indices":3,
					"material":0
				}
			]
		}
	],
	"accessors":[
		{
			"bufferView":0,
			"componentType":5126,
			"count":1873,
			"max":[
				1.4762521982192993,
				1.6519079208374023,
				1.3112083673477173
			],
			"min":[
				-1.518581509590149,
				-1.576415777206421,
				-1.1066838502883911
			],
			"type":"VEC3"
		},
		{
			"bufferView":1,
			"componentType":5126,
			"count":1873,
			"type":"VEC3"
		},
		{
			"bufferView":2,
			"componentType":5126,
			"count":1873,
			"type":"VEC2"
		},
		{
			"bufferView":3,
			"componentType":5123,
			"count":9216,
			"type":"SCALAR"
		}
	],
	"bufferViews":[
		{
			"buffer":0,
			"byteLength":22476,
			"byteOffset":0,
			"target":34962
		},
		{
			"buffer":0,
			"byteLength":22476,
			"byteOffset":22476,
			"target":34962
		},
		{
			"buffer":0,
			"byteLength":14984,
			"byteOffset":44952,
			"target":34962
		},
		{
			"buffer":0,
			"byteLength":18432,
			"byteOffset":59936,
			"target":34963
		}
	],
	"buffers":[
		{
			"byteLength":78368,
			"uri":"meteor_chico.bin"
		}
	]
}
