{
	"asset":{
		"generator":"Khronos glTF Blender I/O v3.6.27",
		"version":"2.0"
	},
	"scene":1,
	"scenes":[
		{
			"name":"enemy",
			"nodes":[
				0
			]
		},
		{
			"name":"planet",
			"nodes":[
				1
			]
		},
		{
			"name":"player",
			"nodes":[
				5
			]
		}
	],
	"nodes":[
		{
			"mesh":0,
			"name":"enemy",
			"translation":[
				0.22313761711120605,
				-0.02044367790222168,
				-0.02614566683769226
			]
		},
		{
			"mesh":1,
			"name":"Sphere"
		},
		{
			"name":"nave",
			"rotation":[
				5.343347453390379e-08,
				-1.9688393138039828e-07,
				0.0006460415315814316,
				0.9999997615814209
			],
			"scale":[
				1,
				0.9999999403953552,
				1
			],
			"translation":[
				-1.2178387641906738,
				-0.27428579330444336,
				-5.531518922907708e-07
			]
		},
		{
			"children":[
				2
			],
			"name":"root",
			"rotation":[
				6.926707385446207e-08,
				1.6428306537363824e-07,
				-0.7075634598731995,
				0.7066497802734375
			],
			"scale":[
				1,
				0.9999999403953552,
				1
			],
			"translation":[
				-1.8272883892059326,
				-1.2181921005249023,
				1.1423144030686672e-07
			]
		},
		{
			"mesh":2,
			"name":"nave",
			"skin":0
		},
		{
			"children":[
				4,
				3
			],
			"name":"Rigging_nave"
		}
	],
	"animations":[
		{
			"channels":[
				{
					"sampler":0,
					"target":{
						"node":3,
						"path":"translation"
					}
				},
				{
					"sampler":1,
					"target":{
						"node":3,
						"path":"rotation"
					}
				},
				{
					"sampler":2,
					"target":{
						"node":3,
						"path":"scale"
					}
				},
				{
					"sampler":3,
					"target":{
						"node":2,
						"path":"translation"
					}
				},
				{
					"sampler":4,
					"target":{
						"node":2,
						"path":"rotation"
					}
				},
				{
					"sampler":5,
					"target":{
						"node":2,
						"path":"scale"
					}
				}
			],
			"name":"nave_hacia_abajo",
			"samplers":[
				{
					"input":45,
					"interpolation":"STEP",
					"output":46
				},
				{
					"input":45,
					"interpolation":"STEP",
					"output":47
				},
				{
					"input":45,
					"interpolation":"STEP",
					"output":48
				},
				{
					"input":45,
					"interpolation":"STEP",
					"output":49
				},
				{
					"input":45,
					"interpolation":"STEP",
					"output":50
				},
				{
					"input":45,
					"interpolation":"STEP",
					"output":51
				}
			]
		},
		{
			"channels":[
				{
					"sampler":0,
					"target":{
						"node":3,
						"path":"translation"
					}
				},
				{
					"sampler":1,
					"target":{
						"node":3,
						"path":"rotation"
					}
				},
				{
					"sampler":2,
					"target":{
						"node":3,
						"path":"scale"
					}
				},
				{
					"sampler":3,
					"target":{
						"node":2,
						"path":"translation"
					}
				},
				{
					"sampler":4,
					"target":{
						"node":2,
						"path":"rotation"
					}
				},
				{
					"sampler":5,
					"target":{
						"node":2,
						"path":"scale"
					}
				}
			],
			"name":"nave_hacia_arriba",
			"samplers":[
				{
					"input":45,
					"interpolation":"STEP",
					"output":52
				},
				{
					"input":45,
					"interpolation":"STEP",
					"output":53
				},
				{
					"input":45,
					"interpolation":"STEP",
					"output":54
				},
				{
					"input":45,
					"interpolation":"STEP",
					"output":55
				},
				{
					"input":45,
					"interpolation":"STEP",
					"output":56
				},
				{
					"input":45,
					"interpolation":"STEP",
					"output":57
				}
			]
		},
		{
			"channels":[
				{
					"sampler":0,
					"target":{
						"node":3,
						"path":"translation"
					}
				},
				{
					"sampler":1,
					"target":{
						"node":3,
						"path":"rotation"
					}
				},
				{
					"sampler":2,
					"target":{
						"node":3,
						"path":"scale"
					}
				},
				{
					"sampler":3,
					"target":{
						"node":2,
						"path":"translation"
					}
				},
				{
					"sampler":4,
					"target":{
						"node":2,
						"path":"rotation"
					}
				},
				{
					"sampler":5,
					"target":{
						"node":2,
						"path":"scale"
					}
				}
			],
			"name":"nave_recta",
			"samplers":[
				{
					"input":45,
					"interpolation":"STEP",
					"output":58
				},
				{
					"input":45,
					"interpolation":"STEP",
					"output":59
				},
				{
					"input":45,
					"interpolation":"STEP",
					"output":60
				},
				{
					"input":45,
					"interpolation":"STEP",
					"output":61
				},
				{
					"input":45,
					"interpolation":"STEP",
					"output":62
				},
				{
					"input":45,
					"interpolation":"STEP",
					"output":63
				}
			]
		}
	],
	"materials":[
		{
			"doubleSided":true,
			"name":"ROJO",
			"pbrMetallicRoughness":{
				"baseColorFactor":[
					0.5775806307792664,
					0.05126946046948433,
					0.029556844383478165,
					1
				],
				"metallicFactor":0.8999999761581421,
				"roughnessFactor":0.10000000149011612
			}
		},
		{
			"doubleSided":true,
			"name":"VERDE",
			"pbrMetallicRoughness":{
				"baseColorFactor":[
					0.05126946046948433,
					0.2788942754268646,
					0.05126946046948433,
					1
				],
				"metallicFactor":0.699999988079071,
				"roughnessFactor":0.10000000149011612
			}
		},
		{
			"doubleSided":true,
			"name":"NEGRO",
			"pbrMetallicRoughness":{
				"baseColorFactor":[
					0,
					0.0012141080806031823,
					0,
					1
				],
				"metallicFactor":0.5,
				"roughnessFactor":0.5
			}
		},
		{
			"doubleSided":true,
			"name":"GRIS",
			"pbrMetallicRoughness":{
				"baseColorFactor":[
					0.31398868560791016,
					0.31398868560791016,
					0.31398868560791016,
					1
				],
				"roughnessFactor":0.20000000298023224
			}
		},
		{
			"doubleSided":true,
			"name":"material_luna_planeta",
			"pbrMetallicRoughness":{
				"baseColorTexture":{
					"index":0
				},
				"metallicFactor":0,
				"roughnessFactor":0.5
			}
		},
		{
			"doubleSided":true,
			"name":"Material.004",
			"pbrMetallicRoughness":{
				"baseColorFactor":[
					0.08353134244680405,
					0.08353134244680405,
					0.08353134244680405,
					1
				],
				"metallicFactor":0.8757780194282532,
				"roughnessFactor":0.1754329949617386
			}
		},
		{
			"doubleSided":true,
			"name":"Material.001",
			"pbrMetallicRoughness":{
				"baseColorFactor":[
					0.033104777336120605,
					0.08437623083591461,
					0.2195262312889099,
					1
				],
				"metallicFactor":0.9584770202636719,
				"roughnessFactor":0.10000000149011612
			}
		},
		{
			"doubleSided":true,
			"name":"Material.003",
			"pbrMetallicRoughness":{
				"baseColorFactor":[
					0,
					0,
					0,
					1
				],
				"metallicFactor":0.800000011920929,
				"roughnessFactor":0.20000000298023224
			}
		},
		{
			"doubleSided":true,
			"name":"alas",
			"pbrMetallicRoughness":{
				"baseColorFactor":[
					1,
					0.1655271351337433,
					0.001704356400296092,
					1
				],
				"roughnessFactor":0.08823499828577042
			}
		}
	],
	"meshes":[
		{
			"name":"Plane",
			"primitives":[
				{
					"attributes":{
						"POSITION":0,
						"NORMAL":1,
						"TEXCOORD_0":2
					},
					"indices":3,
					"material":0
				},
				{
					"attributes":{
						"POSITION":4,
						"NORMAL":5,
						"TEXCOORD_0":6
					},
					"indices":7,
					"material":1
				},
				{
					"attributes":{
						"POSITION":8,
						"NORMAL":9,
						"TEXCOORD_0":10
					},
					"indices":11,
					"material":2
				},
				{
					"attributes":{
						"POSITION":12,
						"NORMAL":13,
						"TEXCOORD_0":14
					},
					"indices":15,
					"material":3
				}
			]
		},
		{
			"name":"Sphere",
			"primitives":[
				{
					"attributes":{
						"POSITION":16,
						"NORMAL":17,
						"TEXCOORD_0":18
					},
					"indices":19,
					"material":4
				}
			]
		},
		{
			"name":"Circle.001",
			"primitives":[
				{
					"attributes":{
						"POSITION":20,
						"NORMAL":21,
						"TEXCOORD_0":22,
						"JOINTS_0":23,
						"WEIGHTS_0":24
					},
					"indices":25,
					"material":5
				},
				{
					"attributes":{
						"POSITION":26,
						"NORMAL":27,
						"TEXCOORD_0":28,
						"JOINTS_0":29,
						"WEIGHTS_0":30
					},
					"indices":31,
					"material":6
				},
				{
					"attributes":{
						"POSITION":32,
						"NORMAL":33,
						"TEXCOORD_0":34,
						"JOINTS_0":35,
						"WEIGHTS_0":36
					},
					"indices":37,
					"material":7
				},
				{
					"attributes":{
						"POSITION":38,
						"NORMAL":39,
						"TEXCOORD_0":40,
						"JOINTS_0":41,
						"WEIGHTS_0":42
					},
					"indices":43,
					"material":8
				}
			]
		}
	],
	"textures":[
		{
			"sampler":0,
			"source":0
		}
	],
	"images":[
		{
			"mimeType":"image/jpeg",
			"name":"8k_mercury",
			"uri":"8k_mercury.jpg"
		}
	],
	"skins":[
		{
			"inverseBindMatrices":44,
			"joints":[
				3,
				2
			],
			"name":"Rigging_nave"
		}
	],
	"accessors":[
		{
			"bufferView":0,
			"componentType":5126,
			"count":563,
			"max":[
				1.2520709037780762,
				0.3555684983730316,
				2.3669490814208984
			],
			"min":[
				-2.414351224899292,
				-0.3104530870914459,
				-2.3669490814208984
			],
			"type":"VEC3"
		},
		{
			"bufferView":1,
			"componentType":5126,
			"count":563,
			"type":"VEC3"
		},
		{
			"bufferView":2,
			"componentType":5126,
			"count":563,
			"type":"VEC2"
		},
		{
			"bufferView":3,
			"componentType":5123,
			"count":3342,
			"type":"SCALAR"
		},
		{
			"bufferView":4,
			"componentType":5126,
			"count":151,
			"max":[
				2.006368637084961,
				1.0192219018936157,
				1.0157541036605835
			],
			"min":[
				-0.027254104614257812,
				-1.014400839805603,
				-1.0178685188293457
			],
			"type":"VEC3"
		},
		{
			"bufferView":5,
			"componentType":5126,
			"count":151,
			"type":"VEC3"
		},
		{
			"bufferView":6,
			"componentType":5126,
			"count":151,
			"type":"VEC2"
		},
		{
			"bufferView":7,
			"componentType":5123,
			"count":672,
			"type":"SCALAR"
		},
		{
			"bufferView":8,
			"componentType":5126,
			"count":108,
			"max":[
				1.4121390581130981,
				0.7414432168006897,
				1.1958860158920288
			],
			"min":[
				-1.2260090112686157,
				-0.6964811086654663,
				-1.1741660833358765
			],
			"type":"VEC3"
		},
		{
			"bufferView":9,
			"componentType":5126,
			"count":108,
			"type":"VEC3"
		},
		{
			"bufferView":10,
			"componentType":5126,
			"count":108,
			"type":"VEC2"
		},
		{
			"bufferView":11,
			"componentType":5123,
			"count":708,
			"type":"SCALAR"
		},
		{
			"bufferView":12,
			"componentType":5126,
			"count":552,
			"max":[
				0.2489244043827057,
				0.04720602184534073,
				1.185295820236206
			],
			"min":[
				-1.8944364786148071,
				-0.5880976319313049,
				-1.1874098777770996
			],
			"type":"VEC3"
		},
		{
			"bufferView":13,
			"componentType":5126,
			"count":552,
			"type":"VEC3"
		},
		{
			"bufferView":14,
			"componentType":5126,
			"count":552,
			"type":"VEC2"
		},
		{
			"bufferView":15,
			"componentType":5123,
			"count":3264,
			"type":"SCALAR"
		},
		{
			"bufferView":16,
			"componentType":5126,
			"count":559,
			"max":[
				997.6558227539062,
				1000,
				997.6558227539062
			],
			"min":[
				-997.65625,
				-1000,
				-997.6559448242188
			],
			"type":"VEC3"
		},
		{
			"bufferView":17,
			"componentType":5126,
			"count":559,
			"type":"VEC3"
		},
		{
			"bufferView":18,
			"componentType":5126,
			"count":559,
			"type":"VEC2"
		},
		{
			"bufferView":19,
			"componentType":5123,
			"count":2880,
			"type":"SCALAR"
		},
		{
			"bufferView":20,
			"componentType":5126,
			"count":1314,
			"max":[
				0.45882558822631836,
				1.0350593328475952,
				0.8674691915512085
			],
			"min":[
				-1.9040944576263428,
				-0.6263732314109802,
				-0.8651726841926575
			],
			"type":"VEC3"
		},
		{
			"bufferView":21,
			"componentType":5126,
			"count":1314,
			"type":"VEC3"
		},
		{
			"bufferView":22,
			"componentType":5126,
			"count":1314,
			"type":"VEC2"
		},
		{
			"bufferView":23,
			"componentType":5121,
			"count":1314,
			"type":"VEC4"
		},
		{
			"bufferView":24,
			"componentType":5126,
			"count":1314,
			"type":"VEC4"
		},
		{
			"bufferView":25,
			"componentType":5123,
			"count":7776,
			"type":"SCALAR"
		},
		{
			"bufferView":26,
			"componentType":5126,
			"count":522,
			"max":[
				2.7259297370910645,
				0.8970890641212463,
				1.1289303302764893
			],
			"min":[
				0.7066278457641602,
				-0.8794847130775452,
				-1.1352710723876953
			],
			"type":"VEC3"
		},
		{
			"bufferView":27,
			"componentType":5126,
			"count":522,
			"type":"VEC3"
		},
		{
			"bufferView":28,
			"componentType":5126,
			"count":522,
			"type":"VEC2"
		},
		{
			"bufferView":29,
			"componentType":5121,
			"count":522,
			"type":"VEC4"
		},
		{
			"bufferView":30,
			"componentType":5126,
			"count":522,
			"type":"VEC4"
		},
		{
			"bufferView":31,
			"componentType":5123,
			"count":2688,
			"type":"SCALAR"
		},
		{
			"bufferView":32,
			"componentType":5126,
			"count":1974,
			"max":[
				1.9681122303009033,
				1.1009951829910278,
				1.8888003826141357
			],
			"min":[
				-1.8878223896026611,
				-0.7893415689468384,
				-1.003882884979248
			],
			"type":"VEC3"
		},
		{
			"bufferView":33,
			"componentType":5126,
			"count":1974,
			"type":"VEC3"
		},
		{
			"bufferView":34,
			"componentType":5126,
			"count":1974,
			"type":"VEC2"
		},
		{
			"bufferView":35,
			"componentType":5121,
			"count":1974,
			"type":"VEC4"
		},
		{
			"bufferView":36,
			"componentType":5126,
			"count":1974,
			"type":"VEC4"
		},
		{
			"bufferView":37,
			"componentType":5123,
			"count":9420,
			"type":"SCALAR"
		},
		{
			"bufferView":38,
			"componentType":5126,
			"count":3017,
			"max":[
				1.9790799617767334,
				1.2821780443191528,
				2.1034085750579834
			],
			"min":[
				-1.9282516241073608,
				-0.5751379132270813,
				-2.1011126041412354
			],
			"type":"VEC3"
		},
		{
			"bufferView":39,
			"componentType":5126,
			"count":3017,
			"type":"VEC3"
		},
		{
			"bufferView":40,
			"componentType":5126,
			"count":3017,
			"type":"VEC2"
		},
		{
			"bufferView":41,
			"componentType":5121,
			"count":3017,
			"type":"VEC4"
		},
		{
			"bufferView":42,
			"componentType":5126,
			"count":3017,
			"type":"VEC4"
		},
		{
			"bufferView":43,
			"componentType":5123,
			"count":14808,
			"type":"SCALAR"
		},
		{
			"bufferView":44,
			"componentType":5126,
			"count":2,
			"type":"MAT4"
		},
		{
			"bufferView":45,
			"componentType":5126,
			"count":2,
			"max":[
				0.4166666666666667
			],
			"min":[
				0.041666666666666664
			],
			"type":"SCALAR"
		},
		{
			"bufferView":46,
			"componentType":5126,
			"count":2,
			"type":"VEC3"
		},
		{
			"bufferView":47,
			"componentType":5126,
			"count":2,
			"type":"VEC4"
		},
		{
			"bufferView":48,
			"componentType":5126,
			"count":2,
			"type":"VEC3"
		},
		{
			"bufferView":49,
			"componentType":5126,
			"count":2,
			"type":"VEC3"
		},
		{
			"bufferView":50,
			"componentType":5126,
			"count":2,
			"type":"VEC4"
		},
		{
			"bufferView":51,
			"componentType":5126,
			"count":2,
			"type":"VEC3"
		},
		{
			"bufferView":52,
			"componentType":5126,
			"count":2,
			"type":"VEC3"
		},
		{
			"bufferView":53,
			"componentType":5126,
			"count":2,
			"type":"VEC4"
		},
		{
			"bufferView":54,
			"componentType":5126,
			"count":2,
			"type":"VEC3"
		},
		{
			"bufferView":55,
			"componentType":5126,
			"count":2,
			"type":"VEC3"
		},
		{
			"bufferView":56,
			"componentType":5126,
			"count":2,
			"type":"VEC4"
		},
		{
			"bufferView":57,
			"componentType":5126,
			"count":2,
			"type":"VEC3"
		},
		{
			"bufferView":58,
			"componentType":5126,
			"count":2,
			"type":"VEC3"
		},
		{
			"bufferView":59,
			"componentType":5126,
			"count":2,
			"type":"VEC4"
		},
		{
			"bufferView":60,
			"componentType":5126,
			"count":2,
			"type":"VEC3"
		},
		{
			"bufferView":61,
			"componentType":5126,
			"count":2,
			"type":"VEC3"
		},
		{
			"bufferView":62,
			"componentType":5126,
			"count":2,
			"type":"VEC4"
		},
		{
			"bufferView":63,
			"componentType":5126,
			"count":2,
			"type":"VEC3"
		}
	],
	"bufferViews":[
		{
			"buffer":0,
			"byteLength":6756,
			"byteOffset":0,
			"target":34962
		},
		{
			"buffer":0,
			"byteLength":6756,
			"byteOffset":6756,
			"target":34962
		},
		{
			"buffer":0,
			"byteLength":4504,
			"byteOffset":13512,
			"target":34962
		},
		{
			"buffer":0,
			"byteLength":6684,
			"byteOffset":18016,
			"target":34963
		},
		{
			"buffer":0,
			"byteLength":1812,
			"byteOffset":24700,
			"target":34962
		},
		{
			"buffer":0,
			"byteLength":1812,
			"byteOffset":26512,
			"target":34962
		},
		{
			"buffer":0,
			"byteLength":1208,
			"byteOffset":28324,
			"target":34962
		},
		{
			"buffer":0,
			"byteLength":1344,
			"byteOffset":29532,
			"target":34963
		},
		{
			"buffer":0,
			"byteLength":1296,
			"byteOffset":30876,
			"target":34962
		},
		{
			"buffer":0,
			"byteLength":1296,
			"byteOffset":32172,
			"target":34962
		},
		{
			"buffer":0,
			"byteLength":864,
			"byteOffset":33468,
			"target":34962
		},
		{
			"buffer":0,
			"byteLength":1416,
			"byteOffset":34332,
			"target":34963
		},
		{
			"buffer":0,
			"byteLength":6624,
			"byteOffset":35748,
			"target":34962
		},
		{
			"buffer":0,
			"byteLength":6624,
			"byteOffset":42372,
			"target":34962
		},
		{
			"buffer":0,
			"byteLength":4416,
			"byteOffset":48996,
			"target":34962
		},
		{
			"buffer":0,
			"byteLength":6528,
			"byteOffset":53412,
			"target":34963
		},
		{
			"buffer":0,
			"byteLength":6708,
			"byteOffset":59940,
			"target":34962
		},
		{
			"buffer":0,
			"byteLength":6708,
			"byteOffset":66648,
			"target":34962
		},
		{
			"buffer":0,
			"byteLength":4472,
			"byteOffset":73356,
			"target":34962
		},
		{
			"buffer":0,
			"byteLength":5760,
			"byteOffset":77828,
			"target":34963
		},
		{
			"buffer":0,
			"byteLength":15768,
			"byteOffset":83588,
			"target":34962
		},
		{
			"buffer":0,
			"byteLength":15768,
			"byteOffset":99356,
			"target":34962
		},
		{
			"buffer":0,
			"byteLength":10512,
			"byteOffset":115124,
			"target":34962
		},
		{
			"buffer":0,
			"byteLength":5256,
			"byteOffset":125636,
			"target":34962
		},
		{
			"buffer":0,
			"byteLength":21024,
			"byteOffset":130892,
			"target":34962
		},
		{
			"buffer":0,
			"byteLength":15552,
			"byteOffset":151916,
			"target":34963
		},
		{
			"buffer":0,
			"byteLength":6264,
			"byteOffset":167468,
			"target":34962
		},
		{
			"buffer":0,
			"byteLength":6264,
			"byteOffset":173732,
			"target":34962
		},
		{
			"buffer":0,
			"byteLength":4176,
			"byteOffset":179996,
			"target":34962
		},
		{
			"buffer":0,
			"byteLength":2088,
			"byteOffset":184172,
			"target":34962
		},
		{
			"buffer":0,
			"byteLength":8352,
			"byteOffset":186260,
			"target":34962
		},
		{
			"buffer":0,
			"byteLength":5376,
			"byteOffset":194612,
			"target":34963
		},
		{
			"buffer":0,
			"byteLength":23688,
			"byteOffset":199988,
			"target":34962
		},
		{
			"buffer":0,
			"byteLength":23688,
			"byteOffset":223676,
			"target":34962
		},
		{
			"buffer":0,
			"byteLength":15792,
			"byteOffset":247364,
			"target":34962
		},
		{
			"buffer":0,
			"byteLength":7896,
			"byteOffset":263156,
			"target":34962
		},
		{
			"buffer":0,
			"byteLength":31584,
			"byteOffset":271052,
			"target":34962
		},
		{
			"buffer":0,
			"byteLength":18840,
			"byteOffset":302636,
			"target":34963
		},
		{
			"buffer":0,
			"byteLength":36204,
			"byteOffset":321476,
			"target":34962
		},
		{
			"buffer":0,
			"byteLength":36204,
			"byteOffset":357680,
			"target":34962
		},
		{
			"buffer":0,
			"byteLength":24136,
			"byteOffset":393884,
			"target":34962
		},
		{
			"buffer":0,
			"byteLength":12068,
			"byteOffset":418020,
			"target":34962
		},
		{
			"buffer":0,
			"byteLength":48272,
			"byteOffset":430088,
			"target":34962
		},
		{
			"buffer":0,
			"byteLength":29616,
			"byteOffset":478360,
			"target":34963
		},
		{
			"buffer":0,
			"byteLength":128,
			"byteOffset":507976
		},
		{
			"buffer":0,
			"byteLength":8,
			"byteOffset":508104
		},
		{
			"buffer":0,
			"byteLength":24,
			"byteOffset":508112
		},
		{
			"buffer":0,
			"byteLength":32,
			"byteOffset":508136
		},
		{
			"buffer":0,
			"byteLength":24,
			"byteOffset":508168
		},
		{
			"buffer":0,
			"byteLength":24,
			"byteOffset":508192
		},
		{
			"buffer":0,
			"byteLength":32,
			"byteOffset":508216
		},
		{
			"buffer":0,
			"byteLength":24,
			"byteOffset":508248
		},
		{
			"buffer":0,
			"byteLength":24,
			"byteOffset":508272
		},
		{
			"buffer":0,
			"byteLength":32,
			"byteOffset":508296
		},
		{
			"buffer":0,
			"byteLength":24,
			"byteOffset":508328
		},
		{
			"buffer":0,
			"byteLength":24,
			"byteOffset":508352
		},
		{
			"buffer":0,
			"byteLength":32,
			"byteOffset":508376
		},
		{
			"buffer":0,
			"byteLength":24,
			"byteOffset":508408
		},
		{
			"buffer":0,
			"byteLength":24,
			"byteOffset":508432
		},
		{
			"buffer":0,
			"byteLength":32,
			"byteOffset":508456
		},
		{
			"buffer":0,
			"byteLength":24,
			"byteOffset":508488
		},
		{
			"buffer":0,
			"byteLength":24,
			"byteOffset":508512
		},
		{
			"buffer":0,
			"byteLength":32,
			"byteOffset":508536
		},
		{
			"buffer":0,
			"byteLength":24,
			"byteOffset":508568
		}
	],
	"samplers":[
		{
			"magFilter":9729,
			"minFilter":9987
		}
	],
	"buffers":[
		{
			"byteLength":508592,
			"uri":"planet.bin"
		}
	]
}
