{
	"asset":{
		"generator":"Khronos glTF Blender I/O v3.6.27",
		"version":"2.0"
	},
	"scene":0,
	"scenes":[
		{
			"name":"planet",
			"nodes":[
				0
			]
		}
	],
	"nodes":[
		{
			"mesh":0,
			"name":"Sphere"
		}
	],
	"materials":[
		{
			"doubleSided":true,
			"name":"material_luna_planeta",
			"pbrMetallicRoughness":{
				"baseColorTexture":{
					"index":0
				},
				"metallicFactor":0,
				"roughnessFactor":0.5
			}
		}
	],
	"meshes":[
		{
			"name":"Mesh",
			"primitives":[
				{
					"attributes":{
						"POSITION":0,
						"NORMAL":1,
						"TEXCOORD_0":2
					},
					"indices":3,
					"material":0
				}
			]
		}
	],
	"textures":[
		{
			"sampler":0,
			"source":0
		}
	],
	"images":[
		{
			"mimeType":"image/jpeg",
			"name":"8k_mercury",
			"uri":"8k_mercury.jpg"
		}
	],
	"accessors":[
		{
			"bufferView":0,
			"componentType":5126,
			"count":2382,
			"max":[
				986.79150390625,
				997.5768432617188,
				986.7918090820312
			],
			"min":[
				-986.7919921875,
				-997.5768432617188,
				-986.7916259765625
			],
			"type":"VEC3"
		},
		{
			"bufferView":1,
			"componentType":5126,
			"count":2382,
			"type":"VEC3"
		},
		{
			"bufferView":2,
			"componentType":5126,
			"count":2382,
			"type":"VEC2"
		},
		{
			"bufferView":3,
			"componentType":5123,
			"count":11904,
			"type":"SCALAR"
		}
	],
	"bufferViews":[
		{
			"buffer":0,
			"byteLength":28584,
			"byteOffset":0,
			"target":34962
		},
		{
			"buffer":0,
			"byteLength":28584,
			"byteOffset":28584,
			"target":34962
		},
		{
			"buffer":0,
			"byteLength":19056,
			"byteOffset":57168,
			"target":34962
		},
		{
			"buffer":0,
			"byteLength":23808,
			"byteOffset":76224,
			"target":34963
		}
	],
	"samplers":[
		{
			"magFilter":9729,
			"minFilter":9987
		}
	],
	"buffers":[
		{
			"byteLength":100032,
			"uri":"planet.bin"
		}
	]
}
