{
	"asset":{
		"generator":"Khronos glTF Blender I/O v3.6.28",
		"version":"2.0"
	},
	"extensionsUsed":[
		"KHR_materials_specular",
		"KHR_materials_ior"
	],
	"scene":0,
	"scenes":[
		{
			"name":"asteroid_grande",
			"nodes":[
				0
			]
		}
	],
	"nodes":[
		{
			"mesh":0,
			"name":"asterioid"
		}
	],
	"materials":[
		{
			"doubleSided":true,
			"extensions":{
				"KHR_materials_specular":{
					"specularColorFactor":[
						0.6197260576568531,
						0.6197260576568531,
						0.6197260576568531
					]
				},
				"KHR_materials_ior":{
					"ior":1.4500000476837158
				}
			},
			"name":"asteroid_grande",
			"pbrMetallicRoughness":{
				"metallicFactor":0.5,
				"roughnessFactor":0.699999988079071
			}
		}
	],
	"meshes":[
		{
			"name":"Cube.024",
			"primitives":[
				{
					"attributes":{
						"POSITION":0,
						"NORMAL":1,
						"TEXCOORD_0":2
					},
					"indices":3,
					"material":0
				}
			]
		}
	],
	"accessors":[
		{
			"bufferView":0,
			"componentType":5126,
			"count":6816,
			"max":[
				3.5463218688964844,
				3.6826534271240234,
				2.516637086868286
			],
			"min":[
				-3.46775484085083,
				-3.7382304668426514,
				-3.076841115951538
			],
			"type":"VEC3"
		},
		{
			"bufferView":1,
			"componentType":5126,
			"count":6816,
			"type":"VEC3"
		},
		{
			"bufferView":2,
			"componentType":5126,
			"count":6816,
			"type":"VEC2"
		},
		{
			"bufferView":3,
			"componentType":5123,
			"count":36864,
			"type":"SCALAR"
		}
	],
	"bufferViews":[
		{
			"buffer":0,
			"byteLength":81792,
			"byteOffset":0,
			"target":34962
		},
		{
			"buffer":0,
			"byteLength":81792,
			"byteOffset":81792,
			"target":34962
		},
		{
			"buffer":0,
			"byteLength":54528,
			"byteOffset":163584,
			"target":34962
		},
		{
			"buffer":0,
			"byteLength":73728,
			"byteOffset":218112,
			"target":34963
		}
	],
	"buffers":[
		{
			"byteLength":291840,
			"uri":"meteor_grande.bin"
		}
	]
}
